<svg width="193" height="77" viewBox="0 0 193 77" fill="none" xmlns="http://www.w3.org/2000/svg">
<g filter="url(#filter0_d_109_94)">
<path d="M4 34.3743C4 23.9843 11.9557 15.3247 22.3085 14.4459L166.472 2.20921C179.593 1.09551 190.191 12.7457 187.844 25.7027L182.977 52.5651C181.253 62.0808 172.968 69 163.298 69H24C12.9543 69 4 60.0457 4 49V34.3743Z" fill="#D9D9D9"/>
<path d="M4 34.3743C4 23.9843 11.9557 15.3247 22.3085 14.4459L166.472 2.20921C179.593 1.09551 190.191 12.7457 187.844 25.7027L182.977 52.5651C181.253 62.0808 172.968 69 163.298 69H24C12.9543 69 4 60.0457 4 49V34.3743Z" fill="url(#paint0_linear_109_94)"/>
</g>
<path opacity="0.6" d="M47.6 38.1C47.2 37.18 46.5867 36.46 45.76 35.94C44.9467 35.4067 43.9867 35.14 42.88 35.14C41.84 35.14 40.9067 35.38 40.08 35.86C39.2533 36.34 38.6 37.0267 38.12 37.92C37.64 38.8 37.4 39.8267 37.4 41C37.4 42.1733 37.64 43.2067 38.12 44.1C38.6 44.9933 39.2533 45.68 40.08 46.16C40.9067 46.64 41.84 46.88 42.88 46.88C43.8533 46.88 44.7267 46.6733 45.5 46.26C46.2867 45.8333 46.9133 45.2333 47.38 44.46C47.86 43.6733 48.1333 42.76 48.2 41.72H42.32V40.58H49.68V41.6C49.6133 42.8267 49.28 43.94 48.68 44.94C48.08 45.9267 47.2733 46.7067 46.26 47.28C45.26 47.8533 44.1333 48.14 42.88 48.14C41.5867 48.14 40.4133 47.84 39.36 47.24C38.3067 46.6267 37.4733 45.78 36.86 44.7C36.26 43.6067 35.96 42.3733 35.96 41C35.96 39.6267 36.26 38.4 36.86 37.32C37.4733 36.2267 38.3067 35.38 39.36 34.78C40.4133 34.1667 41.5867 33.86 42.88 33.86C44.3733 33.86 45.68 34.2333 46.8 34.98C47.92 35.7267 48.7333 36.7667 49.24 38.1H47.6ZM62.1245 41.98C62.1245 42.46 62.1112 42.8267 62.0845 43.08H53.0245C53.0645 43.9067 53.2645 44.6133 53.6245 45.2C53.9845 45.7867 54.4579 46.2333 55.0445 46.54C55.6312 46.8333 56.2712 46.98 56.9645 46.98C57.8712 46.98 58.6312 46.76 59.2445 46.32C59.8712 45.88 60.2845 45.2867 60.4845 44.54H61.9645C61.6979 45.6067 61.1245 46.48 60.2445 47.16C59.3779 47.8267 58.2845 48.16 56.9645 48.16C55.9379 48.16 55.0179 47.9333 54.2045 47.48C53.3912 47.0133 52.7512 46.36 52.2845 45.52C51.8312 44.6667 51.6045 43.6733 51.6045 42.54C51.6045 41.4067 51.8312 40.4133 52.2845 39.56C52.7379 38.7067 53.3712 38.0533 54.1845 37.6C54.9979 37.1467 55.9245 36.92 56.9645 36.92C58.0045 36.92 58.9112 37.1467 59.6845 37.6C60.4712 38.0533 61.0712 38.6667 61.4845 39.44C61.9112 40.2 62.1245 41.0467 62.1245 41.98ZM60.7045 41.94C60.7179 41.1267 60.5512 40.4333 60.2045 39.86C59.8712 39.2867 59.4112 38.8533 58.8245 38.56C58.2379 38.2667 57.5979 38.12 56.9045 38.12C55.8645 38.12 54.9779 38.4533 54.2445 39.12C53.5112 39.7867 53.1045 40.7267 53.0245 41.94H60.7045ZM66.5059 38.26V45.04C66.5059 45.7067 66.6326 46.1667 66.8859 46.42C67.1393 46.6733 67.5859 46.8 68.2259 46.8H69.5059V48H68.0059C67.0193 48 66.2859 47.7733 65.8059 47.32C65.3259 46.8533 65.0859 46.0933 65.0859 45.04V38.26H63.5659V37.08H65.0859V34.34H66.5059V37.08H69.5059V38.26H66.5059ZM81.5431 48.14C80.6231 48.14 79.8098 47.98 79.1031 47.66C78.4098 47.34 77.8631 46.8933 77.4631 46.32C77.0631 45.7467 76.8498 45.1067 76.8231 44.4H78.3031C78.3698 45.08 78.6698 45.68 79.2031 46.2C79.7365 46.7067 80.5165 46.96 81.5431 46.96C82.4898 46.96 83.2365 46.72 83.7831 46.24C84.3431 45.7467 84.6231 45.1267 84.6231 44.38C84.6231 43.78 84.4698 43.3 84.1631 42.94C83.8565 42.5667 83.4765 42.2933 83.0231 42.12C82.5698 41.9333 81.9431 41.7333 81.1431 41.52C80.2098 41.2667 79.4698 41.02 78.9231 40.78C78.3765 40.54 77.9098 40.1667 77.5231 39.66C77.1365 39.1533 76.9431 38.4667 76.9431 37.6C76.9431 36.88 77.1298 36.24 77.5031 35.68C77.8765 35.1067 78.4031 34.66 79.0831 34.34C79.7631 34.02 80.5431 33.86 81.4231 33.86C82.7165 33.86 83.7565 34.18 84.5431 34.82C85.3431 35.4467 85.8031 36.26 85.9231 37.26H84.4031C84.3098 36.6867 83.9965 36.18 83.4631 35.74C82.9298 35.2867 82.2098 35.06 81.3031 35.06C80.4631 35.06 79.7631 35.2867 79.2031 35.74C78.6431 36.18 78.3631 36.7867 78.3631 37.56C78.3631 38.1467 78.5165 38.62 78.8231 38.98C79.1298 39.34 79.5098 39.6133 79.9631 39.8C80.4298 39.9867 81.0565 40.1867 81.8431 40.4C82.7498 40.6533 83.4831 40.9067 84.0431 41.16C84.6031 41.4 85.0765 41.7733 85.4631 42.28C85.8498 42.7867 86.0431 43.4667 86.0431 44.32C86.0431 44.9733 85.8698 45.5933 85.5231 46.18C85.1765 46.7667 84.6631 47.24 83.9831 47.6C83.3031 47.96 82.4898 48.14 81.5431 48.14ZM90.5684 38.26V45.04C90.5684 45.7067 90.6951 46.1667 90.9484 46.42C91.2018 46.6733 91.6484 46.8 92.2884 46.8H93.5684V48H92.0684C91.0818 48 90.3484 47.7733 89.8684 47.32C89.3884 46.8533 89.1484 46.0933 89.1484 45.04V38.26H87.6284V37.08H89.1484V34.34H90.5684V37.08H93.5684V38.26H90.5684ZM95.2373 42.52C95.2373 41.4 95.4573 40.42 95.8973 39.58C96.3507 38.7267 96.9707 38.0733 97.7573 37.62C98.5573 37.1533 99.4573 36.92 100.457 36.92C101.497 36.92 102.391 37.16 103.137 37.64C103.897 38.12 104.444 38.7333 104.777 39.48V37.08H106.177V48H104.777V45.58C104.431 46.3267 103.877 46.9467 103.117 47.44C102.371 47.92 101.477 48.16 100.437 48.16C99.4507 48.16 98.5573 47.9267 97.7573 47.46C96.9707 46.9933 96.3507 46.3333 95.8973 45.48C95.4573 44.6267 95.2373 43.64 95.2373 42.52ZM104.777 42.54C104.777 41.66 104.597 40.8867 104.237 40.22C103.877 39.5533 103.384 39.04 102.757 38.68C102.144 38.32 101.464 38.14 100.717 38.14C99.944 38.14 99.2507 38.3133 98.6373 38.66C98.024 39.0067 97.5373 39.5133 97.1773 40.18C96.8307 40.8333 96.6573 41.6133 96.6573 42.52C96.6573 43.4133 96.8307 44.2 97.1773 44.88C97.5373 45.5467 98.024 46.06 98.6373 46.42C99.2507 46.7667 99.944 46.94 100.717 46.94C101.464 46.94 102.144 46.76 102.757 46.4C103.384 46.04 103.877 45.5267 104.237 44.86C104.597 44.1933 104.777 43.42 104.777 42.54ZM110.773 39.02C111.08 38.34 111.547 37.8133 112.173 37.44C112.813 37.0667 113.593 36.88 114.513 36.88V38.34H114.133C113.12 38.34 112.307 38.6133 111.693 39.16C111.08 39.7067 110.773 40.62 110.773 41.9V48H109.373V37.08H110.773V39.02ZM118.44 38.26V45.04C118.44 45.7067 118.566 46.1667 118.82 46.42C119.073 46.6733 119.52 46.8 120.16 46.8H121.44V48H119.94C118.953 48 118.22 47.7733 117.74 47.32C117.26 46.8533 117.02 46.0933 117.02 45.04V38.26H115.5V37.08H117.02V34.34H118.44V37.08H121.44V38.26H118.44ZM133.628 41.98C133.628 42.46 133.615 42.8267 133.588 43.08H124.528C124.568 43.9067 124.768 44.6133 125.128 45.2C125.488 45.7867 125.962 46.2333 126.548 46.54C127.135 46.8333 127.775 46.98 128.468 46.98C129.375 46.98 130.135 46.76 130.748 46.32C131.375 45.88 131.788 45.2867 131.988 44.54H133.468C133.202 45.6067 132.628 46.48 131.748 47.16C130.882 47.8267 129.788 48.16 128.468 48.16C127.442 48.16 126.522 47.9333 125.708 47.48C124.895 47.0133 124.255 46.36 123.788 45.52C123.335 44.6667 123.108 43.6733 123.108 42.54C123.108 41.4067 123.335 40.4133 123.788 39.56C124.242 38.7067 124.875 38.0533 125.688 37.6C126.502 37.1467 127.428 36.92 128.468 36.92C129.508 36.92 130.415 37.1467 131.188 37.6C131.975 38.0533 132.575 38.6667 132.988 39.44C133.415 40.2 133.628 41.0467 133.628 41.98ZM132.208 41.94C132.222 41.1267 132.055 40.4333 131.708 39.86C131.375 39.2867 130.915 38.8533 130.328 38.56C129.742 38.2667 129.102 38.12 128.408 38.12C127.368 38.12 126.482 38.4533 125.748 39.12C125.015 39.7867 124.608 40.7267 124.528 41.94H132.208ZM135.55 42.52C135.55 41.4 135.777 40.42 136.23 39.58C136.683 38.7267 137.303 38.0733 138.09 37.62C138.89 37.1533 139.79 36.92 140.79 36.92C141.75 36.92 142.617 37.1533 143.39 37.62C144.163 38.0867 144.73 38.6933 145.09 39.44V33.2H146.49V48H145.09V45.56C144.757 46.32 144.21 46.9467 143.45 47.44C142.69 47.92 141.797 48.16 140.77 48.16C139.77 48.16 138.87 47.9267 138.07 47.46C137.283 46.9933 136.663 46.3333 136.21 45.48C135.77 44.6267 135.55 43.64 135.55 42.52ZM145.09 42.54C145.09 41.66 144.91 40.8867 144.55 40.22C144.19 39.5533 143.697 39.04 143.07 38.68C142.457 38.32 141.777 38.14 141.03 38.14C140.257 38.14 139.563 38.3133 138.95 38.66C138.337 39.0067 137.85 39.5133 137.49 40.18C137.143 40.8333 136.97 41.6133 136.97 42.52C136.97 43.4133 137.143 44.2 137.49 44.88C137.85 45.5467 138.337 46.06 138.95 46.42C139.563 46.7667 140.257 46.94 141.03 46.94C141.777 46.94 142.457 46.76 143.07 46.4C143.697 46.04 144.19 45.5267 144.55 44.86C144.91 44.1933 145.09 43.42 145.09 42.54Z" fill="white"/>
<defs>
<filter id="filter0_d_109_94" x="0" y="2.13531" width="192.171" height="74.8647" filterUnits="userSpaceOnUse" color-interpolation-filters="sRGB">
<feFlood flood-opacity="0" result="BackgroundImageFix"/>
<feColorMatrix in="SourceAlpha" type="matrix" values="0 0 0 0 0 0 0 0 0 0 0 0 0 0 0 0 0 0 127 0" result="hardAlpha"/>
<feOffset dy="4"/>
<feGaussianBlur stdDeviation="2"/>
<feComposite in2="hardAlpha" operator="out"/>
<feColorMatrix type="matrix" values="0 0 0 0 0 0 0 0 0 0 0 0 0 0 0 0 0 0 0.25 0"/>
<feBlend mode="normal" in2="BackgroundImageFix" result="effect1_dropShadow_109_94"/>
<feBlend mode="normal" in="SourceGraphic" in2="effect1_dropShadow_109_94" result="shape"/>
</filter>
<linearGradient id="paint0_linear_109_94" x1="18" y1="68.939" x2="182" y2="26.439" gradientUnits="userSpaceOnUse">
<stop stop-color="#585B84"/>
<stop offset="1" stop-color="#474B73"/>
</linearGradient>
</defs>
</svg>
